# xmcd
#
# Track frame offsets: 
#        150
#        15828
#        29166
#        62617
#        80844
#        100581
#        124102
#        138801
#        158054
#        177922
#        191151
#
# Disc length: 2890 seconds
#
# Revision: 0
# Processed by: cddbd v1.5.2PL0 Copyright (c) Steve Scherf et al.
# Submitted via: ExactAudioCopy v1.2
#
DISCID=890b480b
DTITLE=Bobby Watson - From the East Side
DYEAR=2018
DGENRE=Blues
TTITLE0=Ain't That Loving You
TTITLE1=Lies
TTITLE2=Driving Wheel
TTITLE3=Sweet Rotunda
TTITLE4=North Carolina
TTITLE5=John Henry
TTITLE6=Sensitive Kind
TTITLE7=Tore Down
TTITLE8=People Get Ready
TTITLE9=Hey Baby
TTITLE10=Someone Like You
EXTD=
EXTT0=
EXTT1=
EXTT2=
EXTT3=
EXTT4=
EXTT5=
EXTT6=
EXTT7=
EXTT8=
EXTT9=
EXTT10=
PLAYORDER=
